<?xml version="1.0" encoding="UTF-8"?>
<svg version="1.1" xmlns="http://www.w3.org/2000/svg" width="512" height="512">
<path d="M0 0 C1.33514648 -0.01836914 1.33514648 -0.01836914 2.69726562 -0.03710938 C10.32914107 -0.05383372 17.66327222 0.65251387 24.375 4.5625 C25.12136719 4.995625 25.86773437 5.42875 26.63671875 5.875 C28.5625 7.1875 28.5625 7.1875 30.6875 9.5625 C31.30625 10.09875 31.925 10.635 32.5625 11.1875 C35.32705983 11.00939358 35.32705983 11.00939358 37.3203125 10.56640625 C48.4239778 8.69000288 57.56740166 10.60091625 66.8125 16.875 C72.76595846 21.63535646 76.57737783 27.87367501 78.5625 35.1875 C78.84294367 38.44864479 78.83959934 41.69706463 78.8359375 44.96875 C78.85621965 46.88151634 78.8770703 48.79427672 78.8984375 50.70703125 C78.9210512 53.70236269 78.93751941 56.69745813 78.94335938 59.69287109 C78.95289453 62.59775686 78.98667255 65.50159889 79.0234375 68.40625 C79.01586929 69.74242371 79.01586929 69.74242371 79.00814819 71.10559082 C79.09614175 76.68559862 80.00673801 79.67240968 83.5625 84.1875 C85.94526327 91.33578982 85.67602947 99.84602012 82.5 106.6875 C78.34610385 113.77355814 73.37559273 117.37023053 65.578125 119.7421875 C63.5625 120.1875 63.5625 120.1875 60.5625 120.1875 C60.253125 122.04375 60.253125 122.04375 59.9375 123.9375 C56.90230194 137.27143905 48.49057928 148.19134443 37.5625 156.1875 C36.9025 156.1875 36.2425 156.1875 35.5625 156.1875 C35.5625 160.1475 35.5625 164.1075 35.5625 168.1875 C36.42641357 168.44966309 37.29032715 168.71182617 38.18041992 168.98193359 C41.58993053 170.19727781 44.50973161 171.72979328 47.67578125 173.4765625 C56.56454742 178.11926072 66.05270438 180.24492995 75.75 182.5625 C77.54009547 183.00235481 79.3298125 183.44375273 81.11914062 183.88671875 C84.36517679 184.68986525 87.61348549 185.48235142 90.86401367 186.26708984 C94.5625 187.1875 94.5625 187.1875 97.5625 188.1875 C98.14644531 187.33478516 98.14644531 187.33478516 98.7421875 186.46484375 C106.65147358 175.54857103 116.14508801 170.96267938 128.796875 167.234375 C135.80652648 165.1610978 142.15291726 162.71783451 148.5625 159.1875 C148.85484865 156.80296211 148.85484865 156.80296211 148.5625 154.1875 C147.10858291 152.60363501 147.10858291 152.60363501 145.0625 151.4375 C136.03152032 145.13979028 130.95602809 137.64543993 127.5625 127.1875 C127.5625 126.5275 127.5625 125.8675 127.5625 125.1875 C127.005625 125.12433594 126.44875 125.06117188 125.875 124.99609375 C118.01827001 123.73530093 113.63583746 119.85567697 108.625 113.875 C106.12429293 107.54968211 105.89059277 101.50043298 108.3828125 95.171875 C109.5625 93.1875 109.5625 93.1875 112.1484375 90.671875 C115.8797844 86.29794514 115.13076643 81.15687035 115.0625 75.6875 C115.33846694 58.60707169 120.1584298 46.1910232 132.5625 34 C147.50667551 21.39491283 164.61950144 18.76321439 183.5625 20.1875 C198.91023689 22.86726358 212.23709034 31.65550861 221.4375 44.125 C226.58445114 51.91826092 229.68405302 60.07957412 229.66796875 69.4609375 C229.69020508 70.9459375 229.69020508 70.9459375 229.71289062 72.4609375 C229.73753505 74.52069249 229.74289277 76.58077276 229.72851562 78.640625 C229.83918906 83.80538522 230.03529864 87.22966057 233.5234375 91.20703125 C234.05630371 91.71339111 234.58916992 92.21975098 235.13818359 92.74145508 C238.13216703 95.78111293 238.4894655 99.43175055 238.66015625 103.53515625 C238.39990417 110.27048019 236.30737232 115.35704882 231.5625 120.1875 C226.96014387 123.28956051 223.15242564 125.1875 217.5625 125.1875 C217.500625 126.5796875 217.500625 126.5796875 217.4375 128 C216.05970307 137.3237217 209.70899847 145.4015849 202.5625 151.1875 C201.27175837 151.97435596 199.96026579 152.7288241 198.625 153.4375 C195.43588121 154.84640448 195.43588121 154.84640448 194.625 157.4375 C194.5940625 158.30375 194.5940625 158.30375 194.5625 159.1875 C195.7071875 159.5278125 195.7071875 159.5278125 196.875 159.875 C199.86349415 160.93870131 202.5323024 162.12198501 205.375 163.5 C210.18359335 165.75013304 214.95952878 167.19046146 220.0625 168.5625 C232.03273432 171.88353826 241.60445105 177.77864898 248.02734375 188.671875 C251.59800887 195.50271261 253.69450076 202.08518563 254.15673828 209.82202148 C254.23667023 211.09702011 254.31660217 212.37201874 254.3989563 213.68565369 C254.47714475 215.05995361 254.55509087 216.43426734 254.6328125 217.80859375 C254.71901998 219.23677737 254.80585327 220.66492334 254.89328003 222.09303284 C255.0744003 225.07746756 255.25043902 228.06214075 255.42236328 231.04711914 C255.64171788 234.85461898 255.86993902 238.66151736 256.10151863 242.46829128 C256.32343878 246.12320504 256.54073509 249.77838974 256.7578125 253.43359375 C256.81970449 254.46531613 256.81970449 254.46531613 256.88284683 255.51788139 C258.19099678 277.47543554 258.19099678 277.47543554 253.5625 284.1875 C249.39993997 288.05273431 246.95061233 289.31311005 241.34872437 289.30775452 C239.6912191 289.30981651 239.6912191 289.30981651 238.00022888 289.31192017 C236.78247269 289.30832489 235.56471649 289.30472961 234.31005859 289.30102539 C233.0320488 289.30117142 231.754039 289.30131744 230.43730164 289.3014679 C226.92718746 289.30175549 223.41710727 289.29586491 219.90700102 289.28889394 C216.24078766 289.28265406 212.57457357 289.2820561 208.90835571 289.28086853 C201.96334359 289.27775709 195.01834717 289.26954621 188.07334197 289.25951904 C180.16776498 289.24835211 172.26218725 289.24284599 164.35660434 289.23782361 C148.0918937 289.22736345 131.82719885 289.20976762 115.5625 289.1875 C115.63192307 289.99266052 115.70134613 290.79782104 115.77287292 291.62738037 C115.86353531 292.69361633 115.95419769 293.75985229 116.04760742 294.85839844 C116.13765549 295.91105896 116.22770355 296.96371948 116.32048035 298.04827881 C116.66472432 302.51344497 116.82203859 306.9604952 116.875 311.4375 C116.90400391 312.27023437 116.93300781 313.10296875 116.96289062 313.9609375 C117.0303133 320.57873208 115.83516849 325.68929647 111.22170448 330.62069607 C104.00561562 336.10558763 94.63733918 334.87786533 86.03271484 334.81860352 C84.13980947 334.82374563 82.24690889 334.83102911 80.35401917 334.84028625 C75.22803935 334.85876863 70.10258103 334.84588256 64.97662306 334.82619596 C59.60758852 334.80978689 54.23858642 334.81862528 48.86953735 334.82371521 C39.85629971 334.82823285 30.84326983 334.81238473 21.83007812 334.78442383 C11.41211188 334.75235406 0.99451989 334.75239632 -9.423473 334.7696386 C-19.45190217 334.78550407 -29.48019423 334.77877122 -39.5086174 334.76170158 C-43.77405831 334.75483215 -48.03938928 334.75586241 -52.30482864 334.76324654 C-57.32662605 334.77090986 -62.34799758 334.75878155 -67.36972237 334.73139763 C-69.2119616 334.72451398 -71.05424062 334.72441561 -72.89647865 334.73161316 C-75.41238679 334.74030983 -77.92698117 334.7243493 -80.44277954 334.7021637 C-81.17079856 334.71040446 -81.89881757 334.71864523 -82.64889777 334.72713572 C-88.85948836 334.62613196 -92.3451355 332.22174326 -96.6875 328 C-101.68631671 319.96618744 -100.39504728 311.1251232 -99.5625 302.125 C-99.45808594 300.87783203 -99.35367188 299.63066406 -99.24609375 298.34570312 C-98.98866927 295.29171269 -98.71885705 292.23936271 -98.4375 289.1875 C-99.10710817 289.19118717 -99.77671635 289.19487434 -100.46661568 289.19867325 C-116.76686255 289.28704747 -133.06703344 289.35322079 -149.36746407 289.39474869 C-157.25027195 289.41536557 -165.13291982 289.44346929 -173.015625 289.48925781 C-179.8869684 289.52915255 -186.7581959 289.55493917 -193.6296519 289.56385398 C-197.26739849 289.56906433 -200.90481354 289.58129182 -204.54245377 289.61042023 C-208.60543718 289.64269005 -212.66784585 289.64345773 -216.73095703 289.64160156 C-217.93433212 289.65598267 -219.13770721 289.67036377 -220.37754822 289.68518066 C-226.68793817 289.65393474 -230.70290582 289.54470122 -235.4375 285.1875 C-238.98526247 280.48911186 -240.61592349 277.15176542 -240.38671875 271.2890625 C-240.34877197 270.27030029 -240.3108252 269.25153809 -240.27172852 268.2019043 C-240.22330811 267.08340088 -240.1748877 265.96489746 -240.125 264.8125 C-240.07722412 263.64307861 -240.02944824 262.47365723 -239.98022461 261.26879883 C-239.8095074 257.24117587 -239.62561019 253.21433918 -239.4375 249.1875 C-239.4024939 248.4283429 -239.36748779 247.66918579 -239.3314209 246.88702393 C-239.10625349 242.022381 -238.87022891 237.15840628 -238.62246704 232.29486084 C-238.54189808 230.7028759 -238.46321195 229.11079436 -238.38656616 227.51861572 C-236.6858537 192.54849505 -236.6858537 192.54849505 -224.5625 179.625 C-217.09126306 172.94917992 -208.77222369 170.19370329 -199.32421875 167.37890625 C-192.37558085 165.2917881 -185.90067606 162.46538585 -179.4375 159.1875 C-180.6440625 159.16171875 -181.850625 159.1359375 -183.09375 159.109375 C-184.70836738 159.05305114 -186.32294933 158.9957048 -187.9375 158.9375 C-188.72898438 158.92332031 -189.52046875 158.90914062 -190.3359375 158.89453125 C-197.69021558 158.59312641 -203.37238451 156.41957946 -208.6875 151.25 C-216.16446817 141.81720365 -216.58901232 128.22807855 -216.640625 116.71484375 C-216.64632507 115.7147377 -216.65202515 114.71463165 -216.65789795 113.68421936 C-216.66731332 111.57212367 -216.6738681 109.46001353 -216.67773438 107.34790039 C-216.68739577 104.1593981 -216.71843462 100.97155328 -216.75 97.78320312 C-216.82472031 83.78420582 -216.50234878 70.52334281 -209.75 57.875 C-209.39897217 57.20331787 -209.04794434 56.53163574 -208.6862793 55.83959961 C-200.98360916 41.60299968 -188.71218143 33.0960843 -173.62890625 28.0625 C-158.55715044 23.93021934 -142.47284619 25.83153839 -128.5625 32.875 C-113.68132036 41.7679572 -103.44753424 55.4164372 -99.05514526 72.09576416 C-97.96658797 77.54473591 -97.99001942 82.9522714 -98.00390625 88.4921875 C-97.9986644 89.73316193 -97.99342255 90.97413635 -97.98802185 92.25271606 C-97.98163317 94.86296851 -97.98289742 97.47324986 -97.99145508 100.08349609 C-97.99996129 104.04447466 -97.97116145 108.00400727 -97.93945312 111.96484375 C-97.93784057 114.51562457 -97.93841968 117.06640792 -97.94140625 119.6171875 C-97.93017227 120.78426239 -97.91893829 121.95133728 -97.90736389 123.15377808 C-97.99201259 133.30262482 -99.68993867 144.21310933 -106.4375 152.1875 C-111.92874039 157.25633728 -116.91493506 158.47557836 -124.25 158.8125 C-124.94287109 158.85117187 -125.63574219 158.88984375 -126.34960938 158.9296875 C-128.04517015 159.02323568 -129.74129712 159.10642364 -131.4375 159.1875 C-124.55810683 163.11280081 -118.07934728 165.7065144 -110.4375 167.625 C-98.49694988 170.71225738 -88.63912146 175.78751136 -81.4375 186.1875 C-81.4375 186.8475 -81.4375 187.5075 -81.4375 188.1875 C-75.6360708 186.81392518 -69.84283247 185.41069875 -64.0546875 183.98217773 C-62.09400655 183.50240602 -60.13147571 183.03011813 -58.16699219 182.56616211 C-44.56315797 179.3462167 -32.65434373 175.01355465 -20.4375 168.1875 C-19.9778677 164.35989307 -19.68724604 161.00085978 -20.4375 157.1875 C-22.39331992 154.94784227 -24.45234466 153.5526424 -26.92578125 151.91015625 C-36.61859095 145.26236609 -42.23482374 134.24720915 -45.4375 123.1875 C-45.4375 121.8675 -45.4375 120.5475 -45.4375 119.1875 C-46.571875 119.14625 -47.70625 119.105 -48.875 119.0625 C-55.0687647 118.26082478 -60.02971784 115.02190375 -64.046875 110.29296875 C-68.65020567 103.42859037 -70.03411755 96.82133342 -68.98828125 88.65625 C-67.9174151 83.85633931 -65.91909626 79.66909626 -62.4375 76.1875 C-62.1142309 73.35740762 -62.1142309 73.35740762 -62.12890625 70.03515625 C-62.10376953 68.78283203 -62.07863281 67.53050781 -62.05273438 66.24023438 C-62.01804332 63.6152776 -61.98669973 60.99027407 -61.95898438 58.36523438 C-61.61812668 42.06226017 -57.17845627 28.32414051 -45.72265625 16.37109375 C-32.62834286 3.85874985 -17.72422704 0.01277882 0 0 Z " fill="#252021" transform="translate(247.4375,177.8125)"/>
<path d="M0 0 C1.28682678 -0.0071553 2.57365356 -0.01431061 3.8994751 -0.02168274 C5.32363867 -0.02452285 6.74780251 -0.0272346 8.17196655 -0.02983093 C9.67355506 -0.03609833 11.17514202 -0.04274538 12.67672729 -0.04974365 C17.60660732 -0.07075732 22.53648755 -0.08114497 27.46640015 -0.09111023 C29.16626374 -0.09515909 30.86612718 -0.09927605 32.56599045 -0.10346031 C40.55474442 -0.12250774 48.54348919 -0.13673852 56.53226149 -0.14507228 C65.73969251 -0.15483698 74.94688263 -0.18113824 84.15422881 -0.22157317 C91.2796742 -0.25178614 98.40505076 -0.26654614 105.53055894 -0.26985329 C109.78202345 -0.27219828 114.03323048 -0.28108623 118.28462601 -0.30631447 C122.28857954 -0.32969054 126.29210782 -0.33379048 130.29611206 -0.32355309 C131.75935663 -0.32305989 133.22262282 -0.32931618 134.68580246 -0.34310913 C147.86884628 -0.46034952 157.45245775 2.2466373 167.30233765 11.27217102 C177.07435231 21.39009771 178.00966493 34.33889817 178.36483765 47.70967102 C178.40350952 48.90914368 178.4421814 50.10861633 178.48202515 51.34443665 C178.57554223 54.27853527 178.661294 57.21263986 178.73983765 60.14717102 C179.59183778 60.14164026 179.59183778 60.14164026 180.46105003 60.13599777 C194.31753434 60.04744464 208.17396869 59.98161936 222.03067589 59.93992233 C228.73185556 59.91934604 235.43281784 59.89081641 242.13388062 59.84541321 C248.60483428 59.80184516 255.07559139 59.77801044 261.54668045 59.76766205 C264.01134966 59.76029043 266.47600853 59.74589546 268.94059372 59.72425079 C272.40174068 59.69507216 275.86208292 59.6912212 279.32333374 59.69306946 C280.84032867 59.6714978 280.84032867 59.6714978 282.38796997 59.64949036 C291.42859382 59.70148244 299.49403435 62.11040662 306.20858765 68.38154602 C313.68302434 77.00002915 315.05037971 86.42661831 315.0406189 97.41670227 C315.04490402 98.49288315 315.04918915 99.56906403 315.05360413 100.67785645 C315.05932987 102.94797566 315.05986068 105.21811321 315.05551147 107.48823547 C315.05235744 110.9380215 315.07581315 114.38694431 315.10116577 117.83662415 C315.10343972 120.05081578 315.10414182 122.2650097 315.1031189 124.47920227 C315.11232864 125.499319 315.12153839 126.51943573 315.13102722 127.57046509 C315.0611399 138.5401755 312.56668883 147.24220755 304.73983765 155.14717102 C297.99094306 160.58341224 290.99019253 162.44099986 282.3374939 162.17451477 C280.93842966 162.1607124 279.53933526 162.14973126 278.14022827 162.14131165 C275.9679134 162.12094082 273.80153082 162.08463955 271.63070679 161.99995422 C262.74572921 161.52959172 262.74572921 161.52959172 255.10360718 165.43867493 C253.0429453 168.25084416 251.36122287 171.06416529 249.73983765 174.14717102 C248.95752895 175.35465072 248.16349325 176.55476706 247.34921265 177.74092102 C246.09714558 179.69793341 244.84718504 181.65629495 243.59921265 183.61592102 C241.02240663 187.12384181 239.12435699 188.91150815 234.80233765 189.64717102 C230.83192352 188.99894014 229.07102883 187.2720968 226.73983765 184.14717102 C225.90749522 182.48214216 225.11394641 180.79743988 224.34921265 179.10029602 C221.36826828 172.89533987 218.44215941 167.22932346 212.73983765 163.14717102 C203.81360278 160.7210903 194.62799504 161.60260271 185.49252319 162.13838196 C177.33355814 162.47405139 170.7766057 159.92799161 164.36483765 155.02217102 C157.69973258 148.61710085 155.17812794 141.20517034 154.73983765 132.14717102 C154.20997253 132.35983612 153.68010742 132.57250122 153.13418579 132.79161072 C147.08634522 135.03601696 141.82455858 135.54931869 135.41171265 135.48310852 C133.45858424 135.49560818 131.50545921 135.50864469 129.55233765 135.52217102 C126.50859772 135.52611369 123.46518751 135.52205334 120.42147827 135.50752258 C117.45939339 135.49896164 114.49867678 135.52059884 111.53671265 135.54560852 C110.62830627 135.53226471 109.7198999 135.5189209 108.78396606 135.50517273 C104.53317699 135.55489515 102.40732829 135.64902984 98.92709351 138.24629211 C96.48167417 141.48956397 94.15131214 144.75184937 91.9468689 148.16279602 C91.29871468 149.14744843 91.29871468 149.14744843 90.63746643 150.1519928 C89.27010027 152.23007381 87.91048482 154.31305524 86.55233765 156.39717102 C85.18301472 158.49524574 83.81195749 160.59207427 82.43507385 162.68519592 C81.58134616 163.98320894 80.73199834 165.28411545 79.88749695 166.58815002 C76.96485028 171.0346647 76.96485028 171.0346647 74.73983765 172.14717102 C69.05555392 172.7062809 69.05555392 172.7062809 66.73983765 172.14717102 C62.71728884 168.73564229 59.88669309 164.67257709 57.05233765 160.27217102 C56.18385148 158.94925211 55.31536178 157.62633552 54.4468689 156.30342102 C53.54428231 154.91816254 52.641943 153.53274293 51.73983765 152.14717102 C49.91328049 149.3509915 48.07850119 146.56039973 46.23983765 143.77217102 C45.81871704 143.12393372 45.39759644 142.47569641 44.9637146 141.80781555 C42.87215639 138.43415855 42.87215639 138.43415855 39.73983765 136.14717102 C38.3682133 136.04485202 36.99193045 136.00136714 35.61654663 135.98945618 C34.76483383 135.97919403 33.91312103 135.96893188 33.03559875 135.95835876 C32.11170853 135.95105743 31.1878183 135.9437561 30.2359314 135.93623352 C28.27824104 135.90814394 26.32055887 135.87947936 24.36288452 135.85029602 C21.27784639 135.80919154 18.19295755 135.77230519 15.10775757 135.74580383 C12.12932673 135.71800163 9.15159007 135.67210802 6.1734314 135.62373352 C5.26371078 135.62048065 4.35399017 135.61722778 3.41670227 135.61387634 C-2.62624511 135.49930456 -7.64736506 134.38779906 -13.26016235 132.14717102 C-13.32203735 133.42592102 -13.38391235 134.70467102 -13.44766235 136.02217102 C-14.52683938 145.18798127 -18.89238679 151.44076715 -25.6859436 157.45576477 C-34.8575772 163.48204299 -44.7531418 162.59083692 -55.29873657 162.58296204 C-57.51031221 162.58652986 -59.72067747 162.61383178 -61.93203735 162.64326477 C-63.8980188 162.64604431 -63.8980188 162.64604431 -65.90371704 162.64888 C-69.86595341 163.23710552 -70.85386869 164.02120055 -73.26016235 167.14717102 C-74.42958212 168.76753804 -75.55567816 170.41981059 -76.64297485 172.09638977 C-77.25270142 173.02644836 -77.86242798 173.95650696 -78.4906311 174.91474915 C-79.11582642 175.87832336 -79.74102173 176.84189758 -80.38516235 177.83467102 C-81.63349706 179.75802174 -82.8858954 181.67874309 -84.14297485 183.59638977 C-84.69356567 184.44547913 -85.24415649 185.29456848 -85.81143188 186.16938782 C-87.26016235 188.14717102 -87.26016235 188.14717102 -89.26016235 189.14717102 C-92.33471102 189.55711084 -94.30539552 189.811375 -97.26016235 189.14717102 C-102.40090254 184.8775308 -105.96466625 178.31671297 -109.57266235 172.77217102 C-110.63035589 171.15960104 -111.68890294 169.54759045 -112.7484436 167.93623352 C-113.20775269 167.231922 -113.66706177 166.52761047 -114.14028931 165.80195618 C-115.15678662 164.18744702 -115.15678662 164.18744702 -116.26016235 163.14717102 C-118.63900181 163.06112911 -120.99443308 163.03454105 -123.3734436 163.04170227 C-124.8649943 163.02822081 -126.35653166 163.01319313 -127.84805298 162.9967804 C-130.19364947 162.97416345 -132.53776554 162.95948299 -134.88345337 162.97212219 C-146.18402218 163.01679802 -155.67155498 162.05589398 -164.51724243 154.1230011 C-172.20137256 146.24559873 -172.73458438 137.60770851 -172.7640686 127.10029602 C-172.7740538 125.85270508 -172.784039 124.60511414 -172.79432678 123.31971741 C-172.80947048 120.68736574 -172.81655374 118.05495683 -172.81607056 115.42256165 C-172.81582691 112.74551011 -172.83663106 110.0700002 -172.87759399 107.39326477 C-172.93292296 103.50347097 -172.94729533 99.61544564 -172.9515686 95.72529602 C-172.97312515 94.54364868 -172.9946817 93.36200134 -173.01689148 92.14454651 C-172.94153828 82.88263948 -170.67200242 74.64490681 -164.03044128 67.8740387 C-156.04750646 61.01569894 -147.40893852 59.69574217 -137.17251587 59.79072571 C-135.56602425 59.78765915 -135.56602425 59.78765915 -133.92707825 59.78453064 C-130.41423033 59.78154098 -126.90186011 59.79993944 -123.3890686 59.81904602 C-120.94049699 59.82210577 -118.49192363 59.82398025 -116.04335022 59.82472229 C-110.92683186 59.82931328 -105.81047195 59.84369823 -100.69400024 59.86592102 C-94.12423488 59.89430719 -87.55459356 59.90514436 -80.98477268 59.90960312 C-75.93633273 59.91375036 -70.887918 59.92356032 -65.83949089 59.93547821 C-63.41569152 59.94118659 -60.99188973 59.94594342 -58.56808662 59.94974518 C-55.19269623 59.95658878 -51.81740581 59.97020947 -48.44204712 59.98603821 C-46.9311702 59.987715 -46.9311702 59.987715 -45.38977051 59.98942566 C-44.01682076 59.99799088 -44.01682076 59.99799088 -42.61613464 60.00672913 C-41.81848977 60.00970379 -41.0208449 60.01267845 -40.19902897 60.01574326 C-38.26016235 60.14717102 -38.26016235 60.14717102 -36.26016235 61.14717102 C-36.28110962 60.36704651 -36.30205688 59.586922 -36.32363892 58.78315735 C-36.40787972 55.17546497 -36.45916151 51.56798055 -36.51016235 47.95967102 C-36.54367798 46.73312805 -36.5771936 45.50658508 -36.61172485 44.24287415 C-36.73782671 32.29472349 -34.74967151 21.0279018 -26.26016235 12.14717102 C-18.59336296 4.41674674 -10.98097177 0.04193752 0 0 Z " fill="#232020" transform="translate(185.26016235351563,-0.1471710205078125)"/>
<path d="M0 0 C0.37511719 1.18078125 0.75023437 2.3615625 1.13671875 3.578125 C1.65278362 5.1357026 2.16975881 6.69297881 2.6875 8.25 C3.05391602 9.41595703 3.05391602 9.41595703 3.42773438 10.60546875 C3.68232422 11.35957031 3.93691406 12.11367188 4.19921875 12.890625 C4.42440186 13.58188477 4.64958496 14.27314453 4.8815918 14.98535156 C6.47772197 17.8605461 8.22916331 19.24145395 11 21 C14.11514669 21.57804626 14.11514669 21.57804626 17.47265625 21.4609375 C18.70177734 21.45707031 19.93089844 21.45320313 21.19726562 21.44921875 C22.47279297 21.42472656 23.74832031 21.40023438 25.0625 21.375 C26.34189453 21.37371094 27.62128906 21.37242187 28.93945312 21.37109375 C36.35132183 21.66713142 36.35132183 21.66713142 43 19 C44.17767938 17.01709728 44.17767938 17.01709728 44.921875 14.6484375 C45.22480469 13.79765625 45.52773438 12.946875 45.83984375 12.0703125 C46.29037109 10.73613281 46.29037109 10.73613281 46.75 9.375 C47.06582031 8.4778125 47.38164062 7.580625 47.70703125 6.65625 C48.48447968 4.44169993 49.24811196 2.22333165 50 0 C54.03806843 1.24222747 57.51996924 2.76528604 61.1953125 4.83203125 C69.35380591 8.9818488 78.00085203 10.71247158 86.875 12.6875 C89.37326021 13.25236398 91.87028019 13.82174439 94.36550903 14.39985657 C95.90403835 14.75548306 97.44439641 15.10332549 98.98678589 15.44181824 C106.55865529 17.17503887 111.40959085 19.70458174 116 26 C117.08608449 29.25825346 117.26310524 31.92785586 117.44897461 35.35717773 C117.5225267 36.67382919 117.5960788 37.99048065 117.67185974 39.34703064 C117.70932249 40.05236372 117.74678524 40.7576968 117.78538322 41.48440361 C117.90388105 43.71249932 118.02762793 45.94024967 118.15272522 48.16798401 C118.4632677 53.7169351 118.76521312 59.26634714 119.06671143 64.8157959 C119.36117198 70.23034162 119.65974834 75.64463634 119.96484375 81.05859375 C120.00706873 81.81011026 120.04929371 82.56162678 120.09279823 83.33591652 C120.63355066 92.86222248 121.32897394 102.35092443 122.35766602 111.83862305 C123.01181729 117.87982382 123.39648208 123.86228965 123.4375 129.9375 C123.47037109 130.85466797 123.50324219 131.77183594 123.53710938 132.71679688 C123.54419922 133.60302734 123.55128906 134.48925781 123.55859375 135.40234375 C123.57204834 136.17054443 123.58550293 136.93874512 123.59936523 137.73022461 C122.66943635 141.25183311 120.7865879 142.71804484 118 145 C114.58666992 145.56762695 114.58666992 145.56762695 110.73046875 145.48828125 C109.70896477 145.47766914 109.70896477 145.47766914 108.66682434 145.46684265 C106.50590005 145.43900069 104.34763178 145.37629527 102.1875 145.3125 C100.71683448 145.28740332 99.24612807 145.26459253 97.77539062 145.24414062 C94.18274043 145.18921188 90.59162972 145.10301647 87 145 C86.99191315 144.12747589 86.98382629 143.25495178 86.97549438 142.35598755 C86.89764713 134.14487317 86.81038671 125.93392496 86.71247292 117.72302437 C86.66246508 113.50141835 86.61613567 109.27983791 86.578125 105.05810547 C86.54132855 100.98610461 86.49498446 96.91431542 86.44193649 92.84249496 C86.42336242 91.28675921 86.40826565 89.73097803 86.39665604 88.17517471 C86.37984468 86.0008386 86.3508234 83.82699047 86.31884766 81.65283203 C86.29886215 79.79418015 86.29886215 79.79418015 86.2784729 77.89797974 C86.29801281 74.87386028 86.29801281 74.87386028 84 73 C81.03 73.495 81.03 73.495 78 74 C77.67 97.43 77.34 120.86 77 145 C42.35 145 7.7 145 -28 145 C-28.375 110.125 -28.375 110.125 -28.47802734 99.10595703 C-28.51792828 95.85140825 -28.51792828 95.85140825 -28.56045532 92.59689331 C-28.5781609 91.14535424 -28.59195725 89.69376434 -28.60269165 88.24215698 C-28.61968998 86.0454966 -28.64902202 83.8493161 -28.68115234 81.65283203 C-28.69447601 80.41373077 -28.70779968 79.17462952 -28.7215271 77.89797974 C-28.70198719 74.87386028 -28.70198719 74.87386028 -31 73 C-34.30683466 73.28983269 -34.30683466 73.28983269 -37 75 C-37.12401914 77.17731389 -37.1780151 79.35863454 -37.20532227 81.53930664 C-37.21522186 82.22220261 -37.22512146 82.90509857 -37.23532104 83.60868835 C-37.26701935 85.87580853 -37.29172613 88.14294969 -37.31640625 90.41015625 C-37.3369686 91.97815001 -37.35796488 93.54613813 -37.37937927 95.11412048 C-37.43467424 99.24870248 -37.48405062 103.38333511 -37.53222656 107.51800537 C-37.58238753 111.73405483 -37.63810174 115.95003043 -37.69335938 120.16601562 C-37.8010317 128.44394803 -37.90245635 136.72194208 -38 145 C-42.18080601 145.12403121 -46.36062502 145.21453601 -50.54272461 145.2746582 C-51.96381291 145.29973147 -53.38477313 145.33379999 -54.80541992 145.37719727 C-56.85367462 145.43817858 -58.90021883 145.46627762 -60.94921875 145.48828125 C-62.79519653 145.52755737 -62.79519653 145.52755737 -64.6784668 145.56762695 C-68.92170188 144.84248755 -70.36845651 143.33389343 -73 140 C-73.53662109 137.08862305 -73.53662109 137.08862305 -73.3984375 133.82421875 C-73.35299805 132.58333496 -73.30755859 131.34245117 -73.26074219 130.06396484 C-73.17816548 128.70903858 -73.09113493 127.35437753 -73 126 C-72.95685669 125.31536682 -72.91371338 124.63073364 -72.8692627 123.925354 C-72.57355305 119.38035703 -72.21140284 114.84208721 -71.83197021 110.30340576 C-70.29867596 91.85006699 -69.31581703 73.39478675 -68.53781128 54.89588928 C-68.39981184 51.6684824 -68.25324146 48.44153026 -68.10192871 45.21472168 C-68.03548201 43.77095829 -67.97256576 42.32702677 -67.91369629 40.88293457 C-67.83334944 38.96562456 -67.73361987 37.04915567 -67.6328125 35.1328125 C-67.5827002 34.0823877 -67.53258789 33.03196289 -67.48095703 31.94970703 C-66.57370401 26.38552887 -64.27236998 22.51486018 -59.77166748 19.0519104 C-56.47624058 17.09528261 -52.94457776 16.39158645 -49.2265625 15.60546875 C-47.49607752 15.20254365 -45.76560934 14.79954643 -44.03515625 14.39648438 C-41.3471348 13.79220237 -38.65772885 13.19471863 -35.96728516 12.60131836 C-24.82074692 10.11570436 -15.00912023 7.08244058 -4.97021484 1.56762695 C-2 0 -2 0 0 0 Z " fill="#E7E7E8" transform="translate(231,357)"/>
<path d="M0 0 C1.45469358 -0.00542922 2.90938166 -0.01255635 4.36405945 -0.02124023 C8.29183022 -0.03938178 12.21917789 -0.03244439 16.14695549 -0.01972389 C20.27071083 -0.00954837 24.39443161 -0.01900215 28.51818848 -0.02526855 C35.44139056 -0.03253177 42.36442158 -0.0229922 49.28759766 -0.00390625 C57.27491736 0.01786002 65.26182855 0.01080771 73.24913836 -0.01121187 C80.12502284 -0.0294038 87.00078483 -0.03190572 93.87668562 -0.0214572 C97.9754197 -0.01524304 102.07396219 -0.01432903 106.17268372 -0.02760315 C110.02738744 -0.03921653 113.88156798 -0.03103694 117.73621559 -0.00802612 C119.14503425 -0.00276812 120.55389746 -0.00420262 121.96269798 -0.01307678 C132.99786314 -0.07614321 141.42252935 1.54314234 149.51222229 9.41172791 C157.03420536 17.61423711 157.17708665 26.85665784 157.07226562 37.41992188 C157.07309641 38.94869658 157.07556369 40.47747118 157.07957458 42.00624084 C157.08241808 45.19608747 157.06787713 48.38522635 157.0402832 51.57495117 C157.00623121 55.63425426 157.0122224 59.69229121 157.03094578 63.75165462 C157.041589 66.90473207 157.03251173 70.05752235 157.01756096 73.2105732 C157.01243019 74.70586859 157.01279785 76.20119463 157.01910591 77.69648552 C157.04573767 87.80095782 156.29627879 96.84882738 150.47070312 105.41992188 C149.78105469 106.09152344 149.09140625 106.763125 148.38085938 107.45507812 C147.37345703 108.48955078 147.37345703 108.48955078 146.34570312 109.54492188 C135.13021703 117.16782965 122.65007054 116.05671506 109.63085938 116.01757812 C105.58221274 116.00551252 101.53486111 116.01922941 97.48632812 116.04882812 C96.10806099 116.03184875 96.10806099 116.03184875 94.70195007 116.01452637 C88.95943575 116.05972327 85.86654089 116.78783563 81.44335938 120.51757812 C79.73180513 122.36190777 79.73180513 122.36190777 78.38085938 124.51757812 C77.52234375 125.79761719 77.52234375 125.79761719 76.64648438 127.10351562 C74.80990537 129.93327376 72.99617139 132.77770349 71.17773438 135.61914062 C70.59515869 136.52535156 70.01258301 137.4315625 69.41235352 138.36523438 C68.2294701 140.2093459 67.05409557 142.05829661 65.88647461 143.91210938 C65.0696521 145.19021484 65.0696521 145.19021484 64.23632812 146.49414062 C63.74672607 147.26838379 63.25712402 148.04262695 62.75268555 148.84033203 C62.32060791 149.39382324 61.88853027 149.94731445 61.44335938 150.51757812 C60.78335938 150.51757812 60.12335938 150.51757812 59.44335938 150.51757812 C57.9121543 148.40702403 56.50610461 146.29894702 55.11914062 144.09570312 C54.24657165 142.74643561 53.37350851 141.39748758 52.5 140.04882812 C51.12916123 137.91537924 49.76320697 135.77918113 48.40649414 133.63671875 C47.09513462 131.57227994 45.76480387 129.5211076 44.43164062 127.47070312 C44.03656815 126.83513489 43.64149567 126.19956665 43.23445129 125.54473877 C40.43741583 121.27685493 37.39319464 118.18393142 32.44335938 116.51757812 C29.03861722 116.00823931 25.70504375 116.00638725 22.26757812 116.04882812 C21.30237747 116.04177856 20.33717682 116.034729 19.34272766 116.02746582 C15.24144334 115.99814683 11.1406427 116.0145479 7.03930664 116.02685547 C4.03178183 116.02925286 1.02500905 116.00822845 -1.98242188 115.98632812 C-2.89316971 115.99764771 -3.80391754 116.00896729 -4.74226379 116.02062988 C-13.54368593 115.95235287 -21.49160518 113.36168907 -28.02148438 107.29492188 C-33.74099104 100.67310118 -35.66068113 94.1829879 -35.74951172 85.59692383 C-35.75768921 84.90853928 -35.7658667 84.22015472 -35.77429199 83.51091003 C-35.79905126 81.23840177 -35.81563971 78.96595569 -35.83007812 76.69335938 C-35.8354018 75.91391653 -35.84072548 75.13447369 -35.84621048 74.33141136 C-35.87290403 70.20377971 -35.89228892 66.07617787 -35.90673828 61.94848633 C-35.92005991 58.54489157 -35.94788424 55.14189884 -35.98876953 51.73852539 C-36.03827722 47.61653818 -36.06288126 43.4950955 -36.06996536 39.37282372 C-36.07664751 37.80881995 -36.09178988 36.2448269 -36.11585617 34.68099403 C-36.27664894 23.59833966 -34.93516689 16.1505977 -27.30664062 7.70507812 C-19.11338736 0.29417546 -10.6787967 -0.06726671 0 0 Z " fill="#6CCA6C" transform="translate(195.556640625,9.482421875)"/>
<path d="M0 0 C0.48919922 1.37285156 0.48919922 1.37285156 0.98828125 2.7734375 C1.42527344 3.96195312 1.86226563 5.15046875 2.3125 6.375 C2.74175781 7.55835938 3.17101562 8.74171875 3.61328125 9.9609375 C4.78621555 13.23787198 4.78621555 13.23787198 8 15 C11.98579273 15.43857755 15.99270768 15.32417626 20 15.3125 C21.65902344 15.33666992 21.65902344 15.33666992 23.3515625 15.36132812 C24.41117187 15.36197266 25.47078125 15.36261719 26.5625 15.36328125 C27.53316406 15.36626221 28.50382812 15.36924316 29.50390625 15.37231445 C32.42801406 14.93615792 33.24818916 14.33186022 35 12 C35.96518649 9.96903012 36.85624756 7.90186425 37.6875 5.8125 C38.12449219 4.72582031 38.56148438 3.63914062 39.01171875 2.51953125 C39.33785156 1.68808594 39.66398437 0.85664063 40 0 C43.5245519 1.14623679 46.96385692 2.36553497 50.375 3.8125 C54.18681054 5.37528466 58.00744449 6.61613249 61.95800781 7.75976562 C72.78417471 10.92472393 81.09603354 14.93145796 87 25 C90.640733 32.86024221 91.70335153 40.24521372 92.046875 48.83203125 C92.10780334 50.02624191 92.16873169 51.22045258 92.23150635 52.45085144 C92.42036455 56.23748926 92.58515755 60.02474933 92.75 63.8125 C92.87480716 66.34187108 93.00109682 68.87116947 93.12890625 71.40039062 C93.46366765 78.26616336 93.78466998 85.12935166 94 92 C94.08513855 93.89677994 94.08513855 93.89677994 94.17199707 95.83187866 C94.22656067 97.71660385 94.22656067 97.71660385 94.28222656 99.6394043 C94.3239801 100.7845903 94.36573364 101.92977631 94.40875244 103.10966492 C94.27386414 104.06347549 94.13897583 105.01728607 94 106 C90 109 90 109 69 109 C68.67 90.85 68.34 72.7 68 54 C65.69 54 63.38 54 61 54 C59.32063825 55.67936175 59.83212121 57.76510828 59.79467773 60.07055664 C59.77449585 61.16678345 59.75431396 62.26301025 59.73352051 63.39245605 C59.71704468 64.55329712 59.70056885 65.71413818 59.68359375 66.91015625 C59.66494263 67.97069214 59.6462915 69.03122803 59.6270752 70.12390137 C59.55853504 74.10334572 59.49854154 78.08293356 59.4375 82.0625 C59.293125 90.951875 59.14875 99.84125 59 109 C32.93 109 6.86 109 -20 109 C-20.4375 82.0625 -20.4375 82.0625 -20.56811523 73.54711914 C-20.60621937 71.33479145 -20.64468688 69.12246997 -20.68359375 66.91015625 C-20.70006958 65.74931519 -20.71654541 64.58847412 -20.73352051 63.39245605 C-20.75370239 62.29622925 -20.77388428 61.20000244 -20.79467773 60.07055664 C-20.81799416 58.63493126 -20.81799416 58.63493126 -20.84178162 57.17030334 C-20.7606861 55.02137306 -20.7606861 55.02137306 -22 54 C-24.31 54 -26.62 54 -29 54 C-29.33 72.15 -29.66 90.3 -30 109 C-32.64 109 -35.28 109 -38 109 C-38.71150319 104.38518287 -39.18715304 99.84470878 -39.41723633 95.18188477 C-39.48433304 93.86684464 -39.55142975 92.5518045 -39.62055969 91.19691467 C-39.65477839 90.50370684 -39.68899708 89.810499 -39.7242527 89.09628487 C-39.90996326 85.38326661 -40.11395044 81.67122785 -40.31445312 77.95898438 C-40.5672801 73.25459068 -40.81483525 68.55008443 -41.04418945 63.84448242 C-41.23093282 60.02293755 -41.43513522 56.20266577 -41.65070152 52.38264275 C-41.72918303 50.93543293 -41.80135973 49.48786581 -41.86686134 48.04001045 C-42.22774953 40.13170972 -42.90681395 33.91806834 -47 27 C-46.625 24.4375 -46.625 24.4375 -45 22 C-44.63777344 21.45601563 -44.27554687 20.91203125 -43.90234375 20.3515625 C-37.1952295 11.39570732 -26.97266538 8.35966754 -16.54589844 5.82373047 C-11.87632956 4.6630326 -7.86296321 3.10300796 -3.63549805 0.79150391 C-2 0 -2 0 0 0 Z " fill="#B06D3A" transform="translate(400,348)"/>
<path d="M0 0 C0.33773437 0.91523438 0.67546875 1.83046875 1.0234375 2.7734375 C1.46945313 3.96195312 1.91546875 5.15046875 2.375 6.375 C2.81585938 7.55835938 3.25671875 8.74171875 3.7109375 9.9609375 C4.7950342 13.04493446 4.7950342 13.04493446 7 15 C9.65537372 15.56520003 12.29144713 15.73788198 15 16 C15.02505615 16.56509277 15.0501123 17.13018555 15.07592773 17.71240234 C15.19179956 20.26683742 15.31456537 22.8208955 15.4375 25.375 C15.47681641 26.26445312 15.51613281 27.15390625 15.55664062 28.0703125 C15.59853516 28.92109375 15.64042969 29.771875 15.68359375 30.6484375 C15.72025146 31.43395996 15.75690918 32.21948242 15.79467773 33.02880859 C15.890891 35.07523496 15.890891 35.07523496 17 37 C18.98 37 20.96 37 23 37 C24.14654482 34.70691037 24.19729117 33.20090344 24.31640625 30.6484375 C24.35830078 29.79765625 24.40019531 28.946875 24.44335938 28.0703125 C24.48267578 27.18085938 24.52199219 26.29140625 24.5625 25.375 C24.62727539 24.02921875 24.62727539 24.02921875 24.69335938 22.65625 C24.79956861 20.43765717 24.90161194 18.2189512 25 16 C25.61633301 15.93176025 26.23266602 15.86352051 26.86767578 15.79321289 C29.39128287 15.39907199 31.61912298 14.93204051 34 14 C36.03197747 11.03974553 36.03197747 11.03974553 36.875 7.4375 C37.51582879 5.27054932 38.21066478 3.11737732 39 1 C42 0 42 0 43.84765625 0.8203125 C44.57855469 1.25085938 45.30945313 1.68140625 46.0625 2.125 C50.92232598 4.71547993 55.70182194 6.09413086 61 7.4375 C71.68386715 10.24281022 78.97580531 14.01643093 86.015625 22.75390625 C87 25 87 25 86.23828125 27.6328125 C85.82964844 28.41398437 85.42101562 29.19515625 85 30 C81.38854103 37.86023423 81.71360146 46.9235654 81.28125 55.42578125 C81.21844849 56.60915573 81.15564697 57.79253021 81.09094238 59.01176453 C80.89125813 62.7785398 80.69528159 66.54549409 80.5 70.3125 C80.30444853 74.06877815 80.10801368 77.82500103 79.90905762 81.58110046 C79.78567059 83.91173222 79.66421349 86.24246727 79.54504395 88.57331848 C79.1844183 95.40021919 78.67316634 102.19671982 78 109 C75.03 109 72.06 109 69 109 C68.67 90.85 68.34 72.7 68 54 C65.69 54 63.38 54 61 54 C59.32063825 55.67936175 59.83212121 57.76510828 59.79467773 60.07055664 C59.77449585 61.16678345 59.75431396 62.26301025 59.73352051 63.39245605 C59.71704468 64.55329712 59.70056885 65.71413818 59.68359375 66.91015625 C59.66494263 67.97069214 59.6462915 69.03122803 59.6270752 70.12390137 C59.55853504 74.10334572 59.49854154 78.08293356 59.4375 82.0625 C59.293125 90.951875 59.14875 99.84125 59 109 C32.93 109 6.86 109 -20 109 C-20.4375 82.0625 -20.4375 82.0625 -20.56811523 73.54711914 C-20.60621937 71.33479145 -20.64468688 69.12246997 -20.68359375 66.91015625 C-20.70006958 65.74931519 -20.71654541 64.58847412 -20.73352051 63.39245605 C-20.75370239 62.29622925 -20.77388428 61.20000244 -20.79467773 60.07055664 C-20.81799416 58.63493126 -20.81799416 58.63493126 -20.84178162 57.17030334 C-20.7606861 55.02137306 -20.7606861 55.02137306 -22 54 C-23.99958364 53.95919217 -26.00045254 53.95745644 -28 54 C-29.2546715 56.50934299 -29.15873558 58.28377355 -29.20532227 61.09228516 C-29.22526749 62.15323395 -29.24521271 63.21418274 -29.26576233 64.30728149 C-29.28247482 65.45626923 -29.29918732 66.60525696 -29.31640625 67.7890625 C-29.33718735 68.96262299 -29.35796844 70.13618347 -29.37937927 71.3453064 C-29.44491983 75.10514304 -29.50378076 78.86505122 -29.5625 82.625 C-29.60568092 85.16927832 -29.64929507 87.71354933 -29.69335938 90.2578125 C-29.80060582 96.50513207 -29.9023638 102.75252326 -30 109 C-33.24983 109.08728882 -36.4993575 109.14048658 -39.75 109.1875 C-40.67039062 109.21263672 -41.59078125 109.23777344 -42.5390625 109.26367188 C-43.42851563 109.27333984 -44.31796875 109.28300781 -45.234375 109.29296875 C-46.05131836 109.3086792 -46.86826172 109.32438965 -47.70996094 109.34057617 C-50.68547635 108.89805549 -51.9630517 108.22511916 -54 106 C-54.40751648 103.11611938 -54.40751648 103.11611938 -54.2800293 99.65087891 C-54.24364349 98.39430481 -54.20725769 97.13773071 -54.16976929 95.84307861 C-54.11374542 94.57486267 -54.05772156 93.30664673 -54 92 C-53.96774323 90.88792175 -53.93548645 89.77584351 -53.9022522 88.63006592 C-53.68735776 81.50005396 -53.33549542 74.37484633 -52.99291992 67.25 C-52.87249223 64.66349357 -52.76118515 62.07654661 -52.65893555 59.48925781 C-52.50883146 55.70768807 -52.32968515 51.92843458 -52.14453125 48.1484375 C-52.10471634 47.00748627 -52.06490143 45.86653503 -52.02388 44.69100952 C-51.44199077 34.01454728 -48.29446367 24.87563038 -41.13671875 16.81640625 C-34.8264973 11.45214121 -28.47081192 8.94449784 -20.5 6.9375 C-14.41568556 5.37932191 -5.81219109 0 0 0 Z " fill="#FA7682" transform="translate(72,348)"/>
<path d="M0 0 C0.89984619 -0.00997513 1.79969238 -0.01995026 2.72680664 -0.03022766 C3.71176117 -0.03089233 4.6967157 -0.03155701 5.71151733 -0.03224182 C7.27056793 -0.0447271 7.27056793 -0.0447271 8.8611145 -0.0574646 C12.30786863 -0.08161927 15.75443354 -0.09034501 19.20126343 -0.09693909 C21.59680234 -0.10590376 23.99234067 -0.11502558 26.38787842 -0.1242981 C31.41667034 -0.14080726 36.44539555 -0.14849129 41.47421265 -0.15138245 C47.90694481 -0.15675725 54.33904633 -0.19439264 60.77160072 -0.24012661 C65.72341169 -0.26992944 70.67507172 -0.27710678 75.62696457 -0.2781086 C77.99756116 -0.28230719 80.36815835 -0.29472687 82.73866653 -0.31562614 C86.06341491 -0.34259564 89.38671403 -0.33769652 92.71151733 -0.32521057 C93.68432648 -0.34004486 94.65713562 -0.35487915 95.65942383 -0.37016296 C102.3319532 -0.29909985 107.24080078 1.20511289 112.59970093 5.27415466 C116.79632581 9.84306758 118.70863843 14.08698579 118.77670288 20.26121521 C118.79595573 21.78376167 118.79595573 21.78376167 118.81559753 23.33706665 C118.82298447 24.43392288 118.8303714 25.53077911 118.83798218 26.66087341 C118.84605392 27.79184952 118.85412567 28.92282562 118.86244202 30.08807373 C118.87628104 32.48463916 118.887004 34.88122429 118.89486694 37.27781677 C118.91205186 40.92997499 118.95593801 44.58122147 119.00009155 48.23313904 C119.01022112 50.56321052 119.0187364 52.89328968 119.02548218 55.22337341 C119.04299026 56.31010849 119.06049835 57.39684357 119.07853699 58.51651001 C119.0594509 65.24128278 118.18563372 69.54312856 114.59970093 75.27415466 C112.38095093 77.33274841 112.38095093 77.33274841 110.09970093 78.71165466 C109.34688843 79.1847406 108.59407593 79.65782654 107.81845093 80.14524841 C103.36942265 82.40892653 99.08255145 82.43272694 94.16610718 82.48509216 C92.69799695 82.51315464 91.22989813 82.54181906 89.7618103 82.57102966 C87.45997364 82.61228738 85.15835143 82.64919868 82.85629272 82.67552185 C80.62579109 82.70320327 78.39623979 82.74906021 76.16610718 82.79759216 C75.48262711 82.80084503 74.79914703 82.8040979 74.09495544 82.80744934 C69.76290497 82.91830379 67.01285923 83.5785141 63.59970093 86.27415466 C61.80992531 88.43773659 61.80992531 88.43773659 60.33798218 90.94212341 C59.77659546 91.83479919 59.21520874 92.72747498 58.6368103 93.64720154 C58.06768921 94.57597107 57.49856812 95.5047406 56.91220093 96.46165466 C55.7687719 98.31322286 54.61935489 100.16111131 53.46298218 102.00462341 C52.96065063 102.8234198 52.45831909 103.64221619 51.94076538 104.48582458 C51.27693848 105.37104797 51.27693848 105.37104797 50.59970093 106.27415466 C49.93970093 106.27415466 49.27970093 106.27415466 48.59970093 106.27415466 C47.15097046 104.37815857 47.15097046 104.37815857 45.48251343 101.75071716 C44.87536499 100.81227966 44.26821655 99.87384216 43.64266968 98.90696716 C42.36982323 96.91085359 41.09897016 94.91346743 39.83016968 92.91477966 C39.22044312 91.97376404 38.61071655 91.03274841 37.98251343 90.06321716 C37.42966675 89.19390564 36.87682007 88.32459412 36.30722046 87.42893982 C34.41758116 85.04433066 33.48719814 84.18560429 30.59970093 83.27415466 C27.97820937 83.08504569 25.4548126 82.99708733 22.83407593 83.00071716 C21.2884959 82.98041816 19.74292304 82.95956719 18.19735718 82.93821716 C15.77721093 82.91569507 13.35734924 82.89917324 10.93710327 82.89329529 C-7.80548673 82.81665415 -7.80548673 82.81665415 -14.45889282 76.23899841 C-15.14145142 75.23546326 -15.14145142 75.23546326 -15.83779907 74.21165466 C-16.54742798 73.20425232 -16.54742798 73.20425232 -17.27139282 72.17649841 C-20.62359663 66.52762902 -20.15445122 59.59634599 -19.40029907 53.27415466 C-18.17319498 50.87190854 -16.80449941 49.19403022 -14.99795532 47.20384216 C-9.41745603 40.4635814 -8.32572231 31.29163291 -8.18936157 22.85227966 C-8.1610022 21.66247498 -8.13264282 20.47267029 -8.10342407 19.24681091 C-8.05101613 16.74957259 -8.0068451 14.25214879 -7.97061157 11.75462341 C-7.92420532 9.97765076 -7.92420532 9.97765076 -7.87686157 8.16477966 C-7.85704224 7.08228943 -7.8372229 5.99979919 -7.81680298 4.88450623 C-7.67935669 4.02309021 -7.5419104 3.16167419 -7.40029907 2.27415466 C-4.27278162 0.18914303 -3.55797043 0.02115973 0 0 Z " fill="#FDCB28" transform="translate(370.4002990722656,69.72584533691406)"/>
<path d="M0 0 C1.31001732 -0.00639748 1.31001732 -0.00639748 2.64649963 -0.01292419 C4.07186035 -0.01224442 4.07186035 -0.01224442 5.52601624 -0.0115509 C7.03640221 -0.01658882 7.03640221 -0.01658882 8.57730103 -0.02172852 C11.90795625 -0.03123245 15.23856118 -0.03318127 18.56922913 -0.03425598 C20.88323996 -0.03746866 23.19725058 -0.04083274 25.51126099 -0.04434204 C30.36253836 -0.05033171 35.21379792 -0.05218208 40.06507874 -0.05158997 C46.28384238 -0.05148829 52.502492 -0.06514719 58.7212286 -0.08236217 C63.50043259 -0.09347521 68.27960895 -0.0955094 73.05882454 -0.09498024 C75.35176042 -0.09616115 77.64469699 -0.10058912 79.93762016 -0.10831261 C83.14294832 -0.11809942 86.34802791 -0.11523964 89.55335999 -0.10920715 C90.50157623 -0.11482666 91.44979248 -0.12044617 92.42674255 -0.12623596 C96.92478209 -0.10470237 100.52415047 -0.01302477 104.60438538 2.13371277 C104.61373108 2.94413025 104.62307678 3.75454773 104.63270569 4.58952332 C104.67732774 7.66341408 104.73920292 10.73639286 104.81190491 13.80973816 C104.85324277 15.76710981 104.87556904 17.72485399 104.89735413 19.68254089 C105.21981126 32.35510644 107.37548443 43.90481183 116.60438538 53.13371277 C117.24969466 60.93031837 117.82342638 68.81270416 112.60438538 75.13371277 C106.58942914 80.7991316 100.15223056 82.36590695 91.97547913 82.44230652 C90.51388633 82.46745133 89.05229789 82.49284956 87.5907135 82.51847839 C85.31085704 82.54725018 83.03107543 82.57130148 80.75111389 82.5900116 C78.5338636 82.61171427 76.317441 82.65113278 74.10047913 82.69230652 C72.12325867 82.7124884 72.12325867 82.7124884 70.10609436 82.733078 C66.35419467 83.16233739 64.54817868 83.81044383 61.60438538 86.13371277 C59.81460976 88.2972947 59.81460976 88.2972947 58.34266663 90.80168152 C57.78127991 91.6943573 57.21989319 92.58703308 56.64149475 93.50675964 C56.07237366 94.43552917 55.50325256 95.36429871 54.91688538 96.32121277 C53.77345635 98.17278097 52.62403934 100.02066941 51.46766663 101.86418152 C50.96533508 102.68297791 50.46300354 103.50177429 49.94544983 104.34538269 C49.28162292 105.23060608 49.28162292 105.23060608 48.60438538 106.13371277 C47.94438538 106.13371277 47.28438538 106.13371277 46.60438538 106.13371277 C45.15565491 104.23771667 45.15565491 104.23771667 43.48719788 101.61027527 C42.88004944 100.67183777 42.272901 99.73340027 41.64735413 98.76652527 C40.37450768 96.7704117 39.10365461 94.77302554 37.83485413 92.77433777 C37.22512756 91.83332214 36.615401 90.89230652 35.98719788 89.92277527 C35.4343512 89.05346375 34.88150452 88.18415222 34.31190491 87.28849792 C32.42226561 84.90388877 31.49188259 84.04516239 28.60438538 83.13371277 C25.98289381 82.94460379 23.45949704 82.85664544 20.83876038 82.86027527 C19.29318035 82.83997626 17.74760749 82.8191253 16.20204163 82.79777527 C13.78189538 82.77525317 11.36203369 82.75873134 8.94178772 82.75285339 C-9.80080228 82.67621226 -9.80080228 82.67621226 -16.45420837 76.09855652 C-17.13676697 75.09502136 -17.13676697 75.09502136 -17.83311462 74.07121277 C-18.54274353 73.06381042 -18.54274353 73.06381042 -19.26670837 72.03605652 C-21.24542997 68.70167099 -21.53082238 65.93786668 -21.57261658 62.14665222 C-21.58545181 61.13162125 -21.59828705 60.11659027 -21.61151123 59.07080078 C-21.61889816 57.97394455 -21.6262851 56.87708832 -21.63389587 55.74699402 C-21.64196762 54.61601791 -21.65003937 53.48504181 -21.65835571 52.3197937 C-21.67219473 49.92322827 -21.6829177 47.52664315 -21.69078064 45.13005066 C-21.70796556 41.47789244 -21.7518517 37.82664597 -21.79600525 34.17472839 C-21.80613482 31.84465692 -21.81465009 29.51457775 -21.82139587 27.18449402 C-21.83890396 26.09775894 -21.85641205 25.01102386 -21.87445068 23.89135742 C-21.8553646 17.16658465 -20.98154742 12.86473887 -17.39561462 7.13371277 C-15.17686462 5.07511902 -15.17686462 5.07511902 -12.89561462 3.69621277 C-12.14280212 3.22312683 -11.38998962 2.75004089 -10.61436462 2.26261902 C-7.08155576 0.46511591 -3.93798506 0.00872077 0 0 Z " fill="#54AAD3" transform="translate(44.39561462402344,69.86628723144531)"/>
<path d="M0 0 C2.66779288 1.01932123 5.21993621 2.11136403 7.76953125 3.40234375 C14.00549041 6.54834112 19.58708326 8.54502967 26.44921875 9.69140625 C27.54526428 9.88530945 27.54526428 9.88530945 28.66345215 10.08312988 C30.44095917 10.39646548 32.2203038 10.69934762 34 11 C34.12769107 18.18567744 34.21472226 25.37105798 34.2746582 32.55761719 C34.29966702 34.99783258 34.33368527 37.43797409 34.37719727 39.87792969 C34.43844959 43.40318117 34.46634755 46.92743495 34.48828125 50.453125 C34.51408768 51.5286261 34.5398941 52.6041272 34.56648254 53.71221924 C34.57096532 66.05909514 29.61854963 76.2723548 21 85 C11.89697382 92.75009935 0.11088911 96.42132819 -11.7734375 96.21484375 C-23.42560118 95.09051217 -33.9529751 90.0731122 -41.95703125 81.6015625 C-45.46185187 77.13844485 -47.84733203 72.22992447 -50 67 C-50.52581665 65.74135132 -50.52581665 65.74135132 -51.06225586 64.45727539 C-52.31384269 59.84292467 -52.24803952 55.54699483 -52.1953125 50.7890625 C-52.1924826 49.82092621 -52.18965271 48.85278992 -52.18673706 47.85531616 C-52.17558696 44.77841572 -52.1504918 41.70181172 -52.125 38.625 C-52.11496352 36.5325563 -52.10583884 34.44010802 -52.09765625 32.34765625 C-52.07566453 27.23165749 -52.04117025 22.11587892 -52 17 C-51.29789902 16.98526138 -50.59579803 16.97052277 -49.87242126 16.95533752 C-29.87013239 16.51646485 -15.19208597 13.87103501 0 0 Z " fill="#F8CFB3" transform="translate(264,236)"/>
<path d="M0 0 C1.37998743 -0.01148238 2.75993176 -0.03187501 4.13964844 -0.06152344 C13.57565939 -0.26411981 19.90436763 0.01270585 27.48950195 5.92797852 C31.39575195 10.07294379 31.39575195 10.07294379 31.39575195 12.29516602 C35.09709588 12.56599606 37.23564607 12.36906104 40.64575195 10.79516602 C46.05485098 8.32243503 51.41277364 8.34623624 57.0480957 10.13891602 C64.13356377 13.29274842 68.59288587 17.74647925 71.45581055 24.96972656 C72.50709517 28.68908962 72.62297849 31.80075504 72.59106445 35.66235352 C72.58823456 36.34194122 72.58540466 37.02152893 72.58248901 37.72171021 C72.5713816 39.87138209 72.54629586 42.02062215 72.52075195 44.17016602 C72.5107099 45.63630579 72.5015862 47.10245216 72.4934082 48.56860352 C72.47147355 52.14426233 72.4370101 55.71967195 72.39575195 59.29516602 C70.08575195 58.96516602 67.77575195 58.63516602 65.39575195 58.29516602 C64.99356445 56.90297852 64.99356445 56.90297852 64.58325195 55.48266602 C63.43673098 52.40516234 62.87350386 51.28465187 60.39575195 49.29516602 C58.4826323 48.71290821 58.4826323 48.71290821 56.3684082 48.55688477 C55.58159668 48.46221924 54.79478516 48.36755371 53.98413086 48.27001953 C53.15059082 48.17519287 52.31705078 48.08036621 51.45825195 47.98266602 C42.09926106 46.72092883 34.19455114 44.27254912 26.79418945 38.13891602 C24.42515558 36.01509078 24.42515558 36.01509078 20.89575195 35.73266602 C16.38762883 36.4571858 15.41699255 37.91425392 12.39575195 41.29516602 C-0.2050484 52.74806738 -12.99474068 54.5932605 -29.36987305 53.99243164 C-30.36760742 53.9750293 -31.3653418 53.95762695 -32.39331055 53.93969727 C-33.29774902 53.91238525 -34.2021875 53.88507324 -35.1340332 53.85693359 C-38.36065691 54.42935794 -39.40047189 55.95526584 -41.60424805 58.29516602 C-44.85424805 58.54516602 -44.85424805 58.54516602 -47.60424805 58.29516602 C-48.13842129 40.66744892 -46.9686435 26.23607959 -34.60424805 12.60766602 C-24.81223143 3.1999777 -13.23608538 0.07659953 0 0 Z " fill="#6C6B6A" transform="translate(243.604248046875,188.704833984375)"/>
<path d="M0 0 C1.05960937 0.10828125 1.05960937 0.10828125 2.140625 0.21875 C9.25194878 0.86198532 16.29937658 1.10929456 23.4375 1.125 C24.28924805 1.12951172 25.14099609 1.13402344 26.01855469 1.13867188 C30.47245151 1.12813842 34.60764879 0.81434833 39 0 C41.67810075 -0.11196073 44.31732686 -0.04625299 47 0 C47.20302734 1.051875 47.20302734 1.051875 47.41015625 2.125 C49.06652649 9.4249311 51.61394313 13.83490957 57 19 C58.96179628 20.96179628 58.21111196 24.72088083 58.23828125 27.40234375 C58.246353 28.15407364 58.25442474 28.90580353 58.26274109 29.68031311 C58.27660766 31.28009726 58.28731824 32.87991133 58.29516602 34.47973633 C58.31221151 36.89659574 58.3560491 39.3120261 58.40039062 41.72851562 C58.51069485 52.63548245 57.63869318 62.04229818 49.83203125 70.40234375 C39.75038801 79.19422453 28.8613859 80.88335624 15.98535156 80.18212891 C7.92371389 79.44258369 2.39699992 75.13299322 -3.578125 70 C-11.41737994 60.28943905 -12.9553211 51.42733008 -12.72729492 39.36083984 C-12.68706956 36.97446406 -12.70681579 34.59351861 -12.73242188 32.20703125 C-12.72487422 30.67966605 -12.71393233 29.15231298 -12.69921875 27.625 C-12.70620285 26.91770752 -12.71318695 26.21041504 -12.72038269 25.48168945 C-12.61262784 21.72675719 -12.31954466 20.30380951 -9.55078125 17.67138672 C-8.70902344 17.1198291 -7.86726563 16.56827148 -7 16 C-5.4385415 13.66759909 -5.4385415 13.66759909 -4.3125 11.125 C-3.91675781 10.30257813 -3.52101563 9.48015625 -3.11328125 8.6328125 C-1.91434917 5.7974433 -0.93591483 2.93167841 0 0 Z " fill="#F7CEB3" transform="translate(397,247)"/>
<path d="M0 0 C9.81150484 8.10443559 16.44349306 19.74380659 18.625 32.28515625 C18.71632472 33.92957448 18.76274759 35.57694191 18.77026367 37.22387695 C18.77664352 38.17869461 18.78302338 39.13351227 18.78959656 40.11726379 C18.79070938 41.13817612 18.7918222 42.15908844 18.79296875 43.2109375 C18.79796135 44.80327461 18.79796135 44.80327461 18.80305481 46.42778015 C18.80811099 48.6711687 18.81046354 50.91456474 18.81030273 53.15795898 C18.81248542 56.57483443 18.83064484 59.99138492 18.84960938 63.40820312 C18.85254439 65.59244682 18.85452846 67.77669204 18.85546875 69.9609375 C18.86265427 70.97577713 18.86983978 71.99061676 18.87724304 73.03620911 C18.85315509 80.58583133 17.79386579 87.11688967 14.75 94.09765625 C14.28980469 95.19013672 14.28980469 95.19013672 13.8203125 96.3046875 C12.35698946 98.72921293 11.08763061 99.88294665 8.625 101.28515625 C6.046875 101.578125 6.046875 101.578125 3.375 101.47265625 C2.03695312 101.43205078 2.03695312 101.43205078 0.671875 101.390625 C-0.34132812 101.33841797 -0.34132812 101.33841797 -1.375 101.28515625 C-0.99988281 100.80046875 -0.62476562 100.31578125 -0.23828125 99.81640625 C1.40960535 97.65796537 3.02418258 95.47872918 4.625 93.28515625 C5.0890625 92.64964844 5.553125 92.01414062 6.03125 91.359375 C12.3451488 82.06177402 13.13165432 71.88683263 13.0625 60.91015625 C13.08248047 59.76160156 13.10246094 58.61304688 13.12304688 57.4296875 C13.17136489 50.93563415 13.17136489 50.93563415 10.72265625 45.05859375 C7.35503233 42.21147781 4.83013268 42.01015532 0.5 41.47265625 C-9.67274126 39.91105123 -15.02635531 36.05953917 -22.56640625 29.11328125 C-26.13921911 26.78772295 -28.18523873 26.71338837 -32.375 27.28515625 C-34.59223632 28.56418679 -34.59223632 28.56418679 -36.3125 30.47265625 C-44.26978556 38.06126449 -51.86460079 41.41832687 -62.9453125 41.6484375 C-65.63165704 42.35241525 -67.50379831 43.2420843 -69.39355469 45.31616211 C-71.81052784 50.16513934 -71.03495992 56.13151653 -70.9375 61.41015625 C-70.94845703 62.67859375 -70.95941406 63.94703125 -70.97070312 65.25390625 C-70.85549966 80.15355425 -65.53459998 89.95409938 -56.375 101.28515625 C-58.43632142 101.3938057 -60.49931321 101.47103946 -62.5625 101.53515625 C-64.28533203 101.60476563 -64.28533203 101.60476563 -66.04296875 101.67578125 C-70.09660108 101.20056058 -71.57837962 100.21988134 -74.375 97.28515625 C-75.703125 94.6640625 -75.703125 94.6640625 -76.625 91.84765625 C-77.09679687 90.45740234 -77.09679687 90.45740234 -77.578125 89.0390625 C-78.80485657 84.79962251 -79.49900624 80.84109664 -79.55200195 76.42578125 C-79.56483719 75.48710205 -79.57767242 74.54842285 -79.59089661 73.58129883 C-79.59828354 72.57607178 -79.60567047 71.57084473 -79.61328125 70.53515625 C-79.621353 69.48545654 -79.62942474 68.43575684 -79.63774109 67.35424805 C-79.65155586 65.13185259 -79.66228964 62.90943615 -79.67016602 60.68701172 C-79.68164935 58.43336694 -79.70204272 56.17974856 -79.73168945 53.92626953 C-80.04901225 29.78491867 -80.04901225 29.78491867 -75.375 19.28515625 C-74.85679688 18.104375 -74.33859375 16.92359375 -73.8046875 15.70703125 C-66.80693304 3.68073966 -57.16929433 -4.30871734 -43.8125 -8.5234375 C-28.56941154 -12.06550132 -12.70761633 -9.17540061 0 0 Z " fill="#868686" transform="translate(120.375,224.71484375)"/>
<path d="M0 0 C3.13070406 1.4179422 5.50609017 3.16197287 8.125 5.375 C15.80751326 11.4103623 23.35727993 13.48812127 33 14 C33.98914283 41.55861817 33.98914283 41.55861817 24.8125 52.5 C17.6957841 59.7224097 10.560783 63.06361955 0.5 63.4375 C-8.28584833 63.34617102 -14.73619655 60.66966691 -21.3828125 54.94921875 C-28.0921621 47.9799128 -32.16005695 38.96888485 -32.09765625 29.234375 C-32.09443359 28.34492188 -32.09121094 27.45546875 -32.08789062 26.5390625 C-32.07532227 25.15847656 -32.07532227 25.15847656 -32.0625 23.75 C-32.05798828 22.81414062 -32.05347656 21.87828125 -32.04882812 20.9140625 C-32.03706918 18.60930959 -32.02063426 16.30468773 -32 14 C-31.16597656 13.90203125 -30.33195312 13.8040625 -29.47265625 13.703125 C-17.58672435 12.1237801 -8.57302704 8.57302704 0 0 Z " fill="#F6CEB2" transform="translate(91,262)"/>
<path d="M0 0 C1.051875 0.721875 2.10375 1.44375 3.1875 2.1875 C10.25926558 9.25926558 16.05683101 18.74603238 16.29296875 28.9375 C16.27334373 30.62525208 16.23803554 32.31289053 16.1875 34 C16.16719727 35.30517578 16.16719727 35.30517578 16.14648438 36.63671875 C16.11151678 38.75808627 16.0577253 40.87912974 16 43 C11.58763965 42.26830205 9.28903192 41.11124641 6 38 C4.35547859 35.2043136 3.68984608 32.74770538 3.1875 29.5625 C2.2600624 25.09460616 0.65991429 22.85651847 -3 20 C-7.69496036 18.43501321 -12.27351152 18.7216744 -17.1015625 19.5 C-21.96660343 20.12397319 -26.72613403 20.14685493 -31.625 20.125 C-32.59759766 20.1259668 -33.57019531 20.12693359 -34.57226562 20.12792969 C-39.94260536 20.10827775 -45.16587399 19.85363089 -50.5 19.25 C-54.17303689 18.90430241 -56.5189051 18.76304263 -59.6875 20.75 C-62.83109019 23.8086283 -64.12611016 26.00160729 -64.75 30.25 C-65.77692494 35.19864617 -67.93634462 38.91785958 -72 42 C-74.69921875 42.6875 -74.69921875 42.6875 -77 43 C-77.67024497 28.76101791 -77.39340441 17.95974996 -67.6875 6.625 C-48.84308181 -12.81122636 -22.54111373 -15.6306993 0 0 Z " fill="#E6E6E7" transform="translate(451,218)"/>
<path d="M0 0 C0.95762741 -0.00708481 1.91525482 -0.01416962 2.90190125 -0.02146912 C3.95598175 -0.0189917 5.01006226 -0.01651428 6.09608459 -0.01396179 C7.20346481 -0.01907272 8.31084503 -0.02418365 9.45178223 -0.02944946 C13.1276229 -0.04339717 16.80327718 -0.04238479 20.47914124 -0.04008484 C23.02500479 -0.04396891 25.57086769 -0.04830297 28.11672974 -0.05307007 C33.45915594 -0.06054344 38.80151319 -0.06037047 44.14393616 -0.05497742 C50.32197998 -0.04893677 56.49979611 -0.06124879 62.67780107 -0.08254749 C68.61731071 -0.10227226 74.55674964 -0.10533904 80.49629402 -0.10181236 C83.02533567 -0.1023271 85.55438083 -0.1075933 88.08340263 -0.11762428 C91.61515392 -0.12991229 95.14637355 -0.12324263 98.67811584 -0.11161804 C99.73017212 -0.11926178 100.78222839 -0.12690552 101.86616516 -0.13478088 C102.8266124 -0.12776657 103.78705963 -0.12075226 104.77661133 -0.11352539 C105.61192351 -0.11369313 106.4472357 -0.11386087 107.30786037 -0.1140337 C109.95848282 0.34925789 110.87400958 1.10861572 112.45179749 3.26069641 C112.32679749 5.82319641 112.32679749 5.82319641 111.45179749 8.26069641 C108.26079976 10.38802823 107.47213077 10.51133255 103.8145752 10.5146637 C102.38652557 10.52312317 102.38652557 10.52312317 100.92962646 10.53175354 C99.88692093 10.52770508 98.84421539 10.52365662 97.76991272 10.51948547 C96.67053375 10.52299011 95.57115479 10.52649475 94.4384613 10.53010559 C90.79570751 10.5389257 87.15314708 10.53307307 83.51039124 10.52632141 C80.98598188 10.52766788 78.46157277 10.52960826 75.93716431 10.53211975 C70.64359329 10.53507132 65.35009197 10.5309619 60.05653381 10.5214386 C53.93245617 10.51054855 47.80851164 10.51408388 41.68443722 10.52509141 C35.79671456 10.53525131 29.90903336 10.53418846 24.02130318 10.52832794 C21.51376896 10.52699012 19.00623137 10.52864378 16.4987011 10.53328705 C13.00047055 10.5383432 9.50249889 10.530655 6.00428772 10.51948547 C4.95955795 10.52353394 3.91482819 10.5275824 2.83843994 10.53175354 C1.88922668 10.52611389 0.94001343 10.52047424 -0.03796387 10.5146637 C-0.86552468 10.51390965 -1.6930855 10.51315559 -2.54572392 10.51237869 C-4.54820251 10.26069641 -4.54820251 10.26069641 -6.54820251 8.26069641 C-6.79820251 5.26069641 -6.79820251 5.26069641 -6.54820251 2.26069641 C-4.08063587 -0.20687023 -3.39475932 0.00834675 0 0 Z " fill="#242321" transform="translate(202.54820251464844,88.73930358886719)"/>
<path d="M0 0 C0.95058792 -0.00845947 1.90117584 -0.01691895 2.88056946 -0.02563477 C3.92170395 -0.01956207 4.96283844 -0.01348938 6.03552246 -0.00723267 C7.13329514 -0.01248962 8.23106781 -0.01774658 9.36210632 -0.02316284 C13.00013347 -0.0363944 16.63772504 -0.02761329 20.27575684 -0.01748657 C22.79777104 -0.01950639 25.31978468 -0.02241706 27.84179688 -0.02618408 C33.13120617 -0.03061173 38.42045854 -0.02444717 43.70983887 -0.01016235 C49.82600107 0.00616452 55.94186327 0.00087609 62.05801821 -0.01564157 C67.94041221 -0.03089237 73.82271294 -0.02928268 79.7051239 -0.02049637 C82.20904075 -0.01849104 84.71296522 -0.02096522 87.21687317 -0.02793503 C90.71262067 -0.03552954 94.20778713 -0.02397272 97.70349121 -0.00723267 C98.7446257 -0.01330536 99.78576019 -0.01937805 100.85844421 -0.02563477 C101.80903214 -0.01717529 102.75962006 -0.00871582 103.73901367 0 C104.56565269 0.00113108 105.39229172 0.00226215 106.24398041 0.00342751 C108.89319915 0.47396606 109.81165463 1.20895317 111.36950684 3.38095093 C111.18200684 6.50595093 111.18200684 6.50595093 110.36950684 9.38095093 C107.9731314 10.57913864 106.49041775 10.50930121 103.8145752 10.5146637 C102.37596634 10.52106117 102.37596634 10.52106117 100.90829468 10.52758789 C99.32481735 10.52690811 99.32481735 10.52690811 97.70935059 10.5262146 C96.60036407 10.52957321 95.49137756 10.53293182 94.3487854 10.53639221 C90.66818128 10.54592276 86.98762254 10.54784628 83.30700684 10.54891968 C80.75874818 10.55213042 78.21048971 10.55549434 75.66223145 10.55900574 C70.31562803 10.56500202 64.96904166 10.56688779 59.62243652 10.56625366 C53.43647276 10.56565243 47.25059607 10.57621278 41.06465435 10.59199733 C35.1198114 10.60662792 29.17499519 10.61024233 23.23013306 10.60964394 C20.69747563 10.61082803 18.16481763 10.61527364 15.63217163 10.6229763 C12.0979275 10.63271972 8.56391048 10.62992072 5.02966309 10.62387085 C3.97401154 10.62949036 2.91835999 10.63510986 1.83071899 10.64089966 C0.39211014 10.63460793 0.39211014 10.63460793 -1.07556152 10.62818909 C-2.32991249 10.62900624 -2.32991249 10.62900624 -3.60960388 10.6298399 C-5.63049316 10.38095093 -5.63049316 10.38095093 -7.63049316 8.38095093 C-7.98939595 5.58150919 -8.1262902 4.04047384 -6.40036774 1.74460411 C-4.12553781 -0.00810714 -2.8543222 0.00390552 0 0 Z " fill="#262623" transform="translate(203.6304931640625,61.619049072265625)"/>
<path d="M0 0 C1.42804962 -0.00845947 1.42804962 -0.00845947 2.88494873 -0.01708984 C3.92765427 -0.01304138 4.9703598 -0.00899292 6.04466248 -0.00482178 C7.69373093 -0.01007874 7.69373093 -0.01007874 9.37611389 -0.01544189 C13.01886768 -0.02426201 16.66142811 -0.01840937 20.30418396 -0.01165771 C22.82859332 -0.01300418 25.35300242 -0.01494456 27.87741089 -0.01745605 C33.17098191 -0.02040762 38.46448323 -0.01629821 43.75804138 -0.0067749 C49.88211902 0.00411515 56.00606355 0.00057982 62.13013798 -0.01042771 C68.01786064 -0.02058762 73.90554184 -0.01952476 79.79327202 -0.01366425 C82.30080623 -0.01232642 84.80834383 -0.01398008 87.3158741 -0.01862335 C90.81410464 -0.02367951 94.31207631 -0.0159913 97.81028748 -0.00482178 C99.37738213 -0.01089447 99.37738213 -0.01089447 100.97613525 -0.01708984 C102.39995514 -0.00863037 102.39995514 -0.00863037 103.85253906 0 C104.68009988 0.00075405 105.50766069 0.0015081 106.36029911 0.002285 C108.36277771 0.25396729 108.36277771 0.25396729 110.36277771 2.25396729 C110.67527771 5.25396729 110.67527771 5.25396729 110.36277771 8.25396729 C107.17177999 10.3812991 106.38311099 10.50460342 102.72555542 10.50793457 C101.2975058 10.51639404 101.2975058 10.51639404 99.84060669 10.52502441 C98.79790115 10.52097595 97.75519562 10.51692749 96.68089294 10.51275635 C95.58151398 10.51626099 94.48213501 10.51976562 93.34944153 10.52337646 C89.70668774 10.53219658 86.06412731 10.52634394 82.42137146 10.51959229 C79.8969621 10.52093875 77.372553 10.52287913 74.84814453 10.52539062 C69.55457351 10.52834219 64.26107219 10.52423278 58.96751404 10.51470947 C52.8434364 10.50381942 46.71949187 10.50735475 40.59541744 10.51836228 C34.70769478 10.52852219 28.82001358 10.52745933 22.9322834 10.52159882 C20.42474919 10.52026099 17.91721159 10.52191465 15.40968132 10.52655792 C11.91145078 10.53161408 8.41347911 10.52392587 4.91526794 10.51275635 C3.87053818 10.51680481 2.82580841 10.52085327 1.74942017 10.52502441 C0.80020691 10.51938477 -0.14900635 10.51374512 -1.12698364 10.50793457 C-1.95454446 10.50718052 -2.78210527 10.50642647 -3.63474369 10.50564957 C-5.63722229 10.25396729 -5.63722229 10.25396729 -7.63722229 8.25396729 C-7.94972229 5.25396729 -7.94972229 5.25396729 -7.63722229 2.25396729 C-4.44622457 0.12663547 -3.65755557 0.00333115 0 0 Z " fill="#232120" transform="translate(203.63722229003906,35.74603271484375)"/>
<path d="M0 0 C1.19625 0.33 2.3925 0.66 3.625 1 C14.07720564 3.29718805 24.62310765 2.1285933 35 0 C36.18815757 10.18735098 32.80844252 18.7373614 29 28 C28 29 28 29 25.95874023 29.11352539 C25.08419189 29.10828857 24.20964355 29.10305176 23.30859375 29.09765625 C22.36435547 29.09443359 21.42011719 29.09121094 20.44726562 29.08789062 C19.45404297 29.07951172 18.46082031 29.07113281 17.4375 29.0625 C16.44041016 29.05798828 15.44332031 29.05347656 14.41601562 29.04882812 C11.94395151 29.03700007 9.47200482 29.02051849 7 29 C5.80933518 25.86274297 4.65210264 22.71410123 3.5 19.5625 C2.99919922 18.24475586 2.99919922 18.24475586 2.48828125 16.90039062 C0.35281988 10.99518622 -0.35757296 6.27668248 0 0 Z " fill="#F6CEB2" transform="translate(238,339)"/>
<path d="M0 0 C0.9075 0.28875 1.815 0.5775 2.75 0.875 C3.74 0.215 4.73 -0.445 5.75 -1.125 C12.05172567 -1.89663988 17.19157537 0.09070686 22.75 2.875 C23.41 3.535 24.07 4.195 24.75 4.875 C24.18181818 10.44318182 24.18181818 10.44318182 22.75 11.875 C20.89453125 11.7890625 20.89453125 11.7890625 18.5625 11.5 C17.75167969 11.40332031 16.94085938 11.30664062 16.10546875 11.20703125 C14.18430959 10.93622109 12.27610967 10.57476308 10.375 10.1875 C7.51988076 9.55956793 7.51988076 9.55956793 4.75 11.875 C0.67509248 12.21457563 -0.78001271 12.18832486 -4.25 9.875 C-8.90815681 10.28095214 -8.90815681 10.28095214 -13.25 11.875 C-16.25 12.125 -16.25 12.125 -19.25 11.875 C-21.25 8.875 -21.25 8.875 -21.1640625 6.36328125 C-19.96455735 3.09796168 -18.72899592 2.53947691 -15.625 1.0625 C-10.01261181 -1.47986388 -5.91102904 -2.04612544 0 0 Z " fill="#2A2424" transform="translate(418.25,294.125)"/>
<path d="M0 0 C2 2 2 2 2.125 5.125 C2.08375 6.07375 2.0425 7.0225 2 8 C3.3921875 7.87625 3.3921875 7.87625 4.8125 7.75 C8 8 8 8 9.9375 9.6875 C11.28233625 12.61449654 11.03115662 13.98584989 10 17 C8 19 8 19 4.875 19.125 C3.451875 19.063125 3.451875 19.063125 2 19 C2.04125 19.94875 2.0825 20.8975 2.125 21.875 C2 25 2 25 0 27 C-3.5 27.3125 -3.5 27.3125 -7 27 C-9.1519437 23.77208445 -9.20086443 22.71599191 -9 19 C-10.134375 18.855625 -11.26875 18.71125 -12.4375 18.5625 C-16 18 -16 18 -17 17 C-17.1875 13.5625 -17.1875 13.5625 -17 10 C-15 8 -15 8 -11.875 7.875 C-10.92625 7.91625 -9.9775 7.9575 -9 8 C-9.0825 7.071875 -9.165 6.14375 -9.25 5.1875 C-9 2 -9 2 -7.3125 0.0625 C-4.38550346 -1.28233625 -3.01415011 -1.03115662 0 0 Z " fill="#6CCC6C" transform="translate(163,185)"/>
<path d="M0 0 C0.85931745 7.39013004 -2.20910577 13.23208149 -5 20 C-9.62 20 -14.24 20 -19 20 C-24.35714286 6.875 -24.35714286 6.875 -24 1 C-22.12054688 1.01740234 -22.12054688 1.01740234 -20.203125 1.03515625 C-18.55208483 1.04453716 -16.90104304 1.05363704 -15.25 1.0625 C-14.425 1.07087891 -13.6 1.07925781 -12.75 1.08789062 C-11.55117187 1.09272461 -11.55117187 1.09272461 -10.328125 1.09765625 C-9.22839355 1.10551147 -9.22839355 1.10551147 -8.10644531 1.11352539 C-5.31279824 0.96296374 -2.78915394 0 0 0 Z " fill="#F5CDB1" transform="translate(104,334)"/>
<path d="M0 0 C0.66 0 1.32 0 2 0 C2.21914063 0.51949219 2.43828125 1.03898438 2.6640625 1.57421875 C5.49641565 7.80309296 8.49976483 11.40206655 14.875 14.3125 C15.57625 14.539375 16.2775 14.76625 17 15 C17 15.66 17 16.32 17 17 C16.46890625 17.23074219 15.9378125 17.46148438 15.390625 17.69921875 C8.29104952 20.97694247 5.30641435 24.89120915 2 32 C1.34 32 0.68 32 0 32 C-0.391875 30.948125 -0.78375 29.89625 -1.1875 28.8125 C-3.43697792 23.63346943 -6.63346943 20.43697792 -11.8125 18.1875 C-12.864375 17.795625 -13.91625 17.40375 -15 17 C-15 16.34 -15 15.68 -15 15 C-13.948125 14.5875 -12.89625 14.175 -11.8125 13.75 C-7.67001754 11.93400264 -4.06664558 10.23181665 -2.02734375 5.96484375 C-1.2827835 4.00128253 -0.63396846 2.00200565 0 0 Z " fill="#EA4546" transform="translate(403,9)"/>
<path d="M0 0 C7.92 0 15.84 0 24 0 C23.04852474 6.66032683 21.57782793 10.92963101 19 17 C14.38 17 9.76 17 5 17 C0 4.5 0 4.5 0 0 Z " fill="#F7CEB2" transform="translate(408,337)"/>
<path d="M0 0 C0 9.9 0 19.8 0 30 C-5.39696182 28.92060764 -7.14671996 27.76765159 -11 24 C-13.60059866 19.74447492 -13.68576122 14.85176063 -13 10 C-10.37887752 4.65694263 -6.288361 0 0 0 Z " fill="#ECC5AB" transform="translate(202,257)"/>
<path d="M0 0 C6.18184484 2.06061495 9.17443301 3.69659307 12.3125 9.375 C13.62517756 14.3870416 13.46033811 17.86833549 11.5 22.6875 C8.99212328 26.70734572 5.34611527 28.39879964 1 30 C0.67 30 0.34 30 0 30 C0 20.1 0 10.2 0 0 Z " fill="#F5CCB1" transform="translate(309,257)"/>
<path d="M0 0 C1.25586914 -0.00386719 1.25586914 -0.00386719 2.53710938 -0.0078125 C3.41302734 -0.00007813 4.28894531 0.00765625 5.19140625 0.015625 C6.06345703 0.00789063 6.93550781 0.00015625 7.83398438 -0.0078125 C8.67251953 -0.00523437 9.51105469 -0.00265625 10.375 0 C11.14255615 0.00225586 11.9101123 0.00451172 12.70092773 0.00683594 C14.75390625 0.265625 14.75390625 0.265625 17.75390625 2.265625 C18.12890625 5.265625 18.12890625 5.265625 17.75390625 8.265625 C13.58246769 11.04658404 10.15427957 10.59632847 5.25390625 10.578125 C4.38636719 10.59423828 3.51882813 10.61035156 2.625 10.62695312 C1.79097656 10.62759766 0.95695312 10.62824219 0.09765625 10.62890625 C-0.66353516 10.63188721 -1.42472656 10.63486816 -2.20898438 10.63793945 C-4.78613122 10.16692448 -5.69745674 9.34963552 -7.24609375 7.265625 C-6.86082863 2.00033501 -5.25665938 0.01547214 0 0 Z " fill="#252020" transform="translate(433.24609375,395.734375)"/>
<path d="M0 0 C5 1 5 1 7.3125 3.125 C9.46659279 6.79493587 9.58959901 8.79910705 9 13 C7.3125 16.375 7.3125 16.375 5 19 C3.35 19.33 1.7 19.66 0 20 C0 13.4 0 6.8 0 0 Z " fill="#F3CBB0" transform="translate(466,272)"/>
<path d="M0 0 C0 6.6 0 13.2 0 20 C-5 19 -5 19 -7.3125 16.375 C-9.26842405 12.46315191 -9.62786731 10.31658774 -9 6 C-6.39546927 2.00638621 -4.87713996 0 0 0 Z " fill="#F4CCB0" transform="translate(374,272)"/>
<path d="M0 0 C2 3 2 3 1.75 5.5625 C1 8 1 8 -1 10 C-4 10.25 -4 10.25 -7 10 C-9 8 -9 8 -9.1875 5 C-9 2 -9 2 -8 0 C-4.67212881 -1.1092904 -3.3006216 -1.01557588 0 0 Z " fill="#53ADD6" transform="translate(113,31)"/>
<path d="M0 0 C1.670625 0.061875 1.670625 0.061875 3.375 0.125 C5.59038462 5.54038462 5.59038462 5.54038462 4.5 8.5 C4.12875 9.03625 3.7575 9.5725 3.375 10.125 C0 10.25 0 10.25 -3.625 10.125 C-5.625 8.125 -5.625 8.125 -5.875 5.125 C-5.4955869 0.57204274 -4.51633162 0.15573557 0 0 Z " fill="#FFCD29" transform="translate(445.625,-0.125)"/>
<path d="M0 0 C3.625 0.375 3.625 0.375 7 1 C8.32841008 6.43440487 8.32841008 6.43440487 6.875 8.9375 C5 10 5 10 2.4375 9.8125 C0 9 0 9 -2 7 C-2.25 4.5 -2.25 4.5 -2 2 C-1.34 1.34 -0.68 0.68 0 0 Z " fill="#2F2B2C" transform="translate(253,447)"/>
<path d="M0 0 C3.29714793 0.32971479 4.6226839 0.6226839 7 3 C6.43181818 8.56818182 6.43181818 8.56818182 5 10 C2.0625 10.25 2.0625 10.25 -1 10 C-3 7 -3 7 -2.75 4.4375 C-2 2 -2 2 0 0 Z " fill="#2F2B2C" transform="translate(254,395)"/>
<path d="M0 0 C0.66 0.66 1.32 1.32 2 2 C1.625 5.125 1.625 5.125 1 8 C-4.41139241 9.32278481 -4.41139241 9.32278481 -6.9375 7.9375 C-8.52666796 5.03960549 -7.87523205 3.09697496 -7 0 C-4.29393021 -1.35303489 -2.8671629 -0.7884698 0 0 Z " fill="#2E2A2B" transform="translate(259,422)"/>
<path d="M0 0 C0.99 0.103125 1.98 0.20625 3 0.3125 C5 3.3125 5 3.3125 4.6875 5.9375 C4 8.3125 4 8.3125 3 9.3125 C0.0625 9.5 0.0625 9.5 -3 9.3125 C-5 7.3125 -5 7.3125 -5.25 4.8125 C-4.86676958 0.9801958 -3.75087075 0.3907157 0 0 Z " fill="#2C2829" transform="translate(256,472.6875)"/>
</svg>
